<svg id="visual" viewBox="0 0 1200 1450" width="1200" height="1450" xmlns="http://www.w3.org/2000/svg" xmlns:xlink="http://www.w3.org/1999/xlink" version="1.1"><rect x="0" y="0" width="1200" height="1450" fill="#F7F7F7"></rect><defs><linearGradient id="grad1_0" x1="0%" y1="0%" x2="100%" y2="100%"><stop offset="30%" stop-color="#f7f7f7" stop-opacity="1"></stop><stop offset="70%" stop-color="#f7f7f7" stop-opacity="1"></stop></linearGradient></defs><defs><linearGradient id="grad2_0" x1="0%" y1="0%" x2="100%" y2="100%"><stop offset="30%" stop-color="#f7f7f7" stop-opacity="1"></stop><stop offset="70%" stop-color="#f7f7f7" stop-opacity="1"></stop></linearGradient></defs><g transform="translate(1200, 0)"><path d="M0 894C-89.7 911.2 -179.4 928.3 -231.4 863.6C-283.3 798.8 -297.5 652.2 -342 592.4C-386.5 532.5 -461.3 559.4 -545.9 545.9C-630.5 532.4 -725 478.6 -685 395.5C-645 312.4 -470.5 200.2 -483 129.4C-495.4 58.6 -694.7 29.3 -894 0L0 0Z" fill="#dce0e3"></path></g><g transform="translate(0, 1450)"><path d="M0 -894C89.2 -894.3 178.3 -894.5 218.7 -816.2C259.1 -737.9 250.6 -581 320.5 -555.1C390.4 -529.3 538.7 -634.5 632.2 -632.2C725.6 -629.8 764.2 -519.8 724.9 -418.5C685.5 -317.2 568.2 -224.6 583.4 -156.3C598.6 -88 746.3 -44 894 0L0 0Z" fill="#dce0e3"></path></g></svg>